<?xml version="1.0" encoding="utf-8"?>
<svg xmlns="http://www.w3.org/2000/svg"
    xmlns:xlink="http://www.w3.org/1999/xlink"
    width="270" height="270" viewBox="-10 -10 270 270">
<defs>
<style type="text/css"><![CDATA[
line {
    stroke: #000000;
    stroke-linecap: square;
    stroke-width: 4;
}
]]>
.small { font: bold 10.0px sans-serif;
         fill: lightgray; }}
</style>
<marker id="arrow" markerWidth="10" markerHeight="7" refX="0" refY="2" orient="auto">
	<polygon points="0 0, 4 2, 0 4" />
</marker>
</defs>
<rect x="0.0" y="0.0" width="50.0" height="50.0" fill="none" stroke="gray" stroke-width="1"/>
<rect x="0.0" y="50.0" width="50.0" height="50.0" fill="none" stroke="gray" stroke-width="1"/>
<rect x="0.0" y="100.0" width="50.0" height="50.0" fill="none" stroke="gray" stroke-width="1"/>
<rect x="0.0" y="150.0" width="50.0" height="50.0" fill="none" stroke="gray" stroke-width="1"/>
<rect x="0.0" y="200.0" width="50.0" height="50.0" fill="none" stroke="gray" stroke-width="1"/>
<rect x="50.0" y="0.0" width="50.0" height="50.0" fill="none" stroke="gray" stroke-width="1"/>
<rect x="50.0" y="50.0" width="50.0" height="50.0" fill="none" stroke="gray" stroke-width="1"/>
<rect x="50.0" y="100.0" width="50.0" height="50.0" fill="none" stroke="gray" stroke-width="1"/>
<rect x="50.0" y="150.0" width="50.0" height="50.0" fill="none" stroke="gray" stroke-width="1"/>
<rect x="50.0" y="200.0" width="50.0" height="50.0" fill="none" stroke="gray" stroke-width="1"/>
<rect x="100.0" y="0.0" width="50.0" height="50.0" fill="none" stroke="gray" stroke-width="1"/>
<rect x="100.0" y="50.0" width="50.0" height="50.0" fill="none" stroke="gray" stroke-width="1"/>
<rect x="100.0" y="100.0" width="50.0" height="50.0" fill="none" stroke="gray" stroke-width="1"/>
<rect x="100.0" y="150.0" width="50.0" height="50.0" fill="none" stroke="gray" stroke-width="1"/>
<rect x="100.0" y="200.0" width="50.0" height="50.0" fill="none" stroke="gray" stroke-width="1"/>
<rect x="150.0" y="0.0" width="50.0" height="50.0" fill="none" stroke="gray" stroke-width="1"/>
<rect x="150.0" y="50.0" width="50.0" height="50.0" fill="none" stroke="gray" stroke-width="1"/>
<rect x="150.0" y="100.0" width="50.0" height="50.0" fill="none" stroke="gray" stroke-width="1"/>
<rect x="150.0" y="150.0" width="50.0" height="50.0" fill="none" stroke="gray" stroke-width="1"/>
<rect x="150.0" y="200.0" width="50.0" height="50.0" fill="none" stroke="gray" stroke-width="1"/>
<rect x="200.0" y="0.0" width="50.0" height="50.0" fill="none" stroke="gray" stroke-width="1"/>
<rect x="200.0" y="50.0" width="50.0" height="50.0" fill="none" stroke="gray" stroke-width="1"/>
<rect x="200.0" y="100.0" width="50.0" height="50.0" fill="none" stroke="gray" stroke-width="1"/>
<rect x="200.0" y="150.0" width="50.0" height="50.0" fill="none" stroke="gray" stroke-width="1"/>
<rect x="200.0" y="200.0" width="50.0" height="50.0" fill="none" stroke="gray" stroke-width="1"/>

<text x="5.0" y="15.0" class="small">S0</text>
<text x="5.0" y="65.0" class="small">S5</text>
<text x="5.0" y="114.99999999999999" class="small">S10</text>
<text x="5.0" y="165.0" class="small">S15</text>
<text x="5.0" y="215.0" class="small">S20</text>
<text x="55.00000000000001" y="15.0" class="small">S1</text>
<text x="55.00000000000001" y="65.0" class="small">S6</text>
<text x="55.00000000000001" y="114.99999999999999" class="small">S11</text>
<text x="55.00000000000001" y="165.0" class="small">S16</text>
<text x="55.00000000000001" y="215.0" class="small">S21</text>
<text x="105.0" y="15.0" class="small">S2</text>
<text x="105.0" y="65.0" class="small">S7</text>
<text x="105.0" y="114.99999999999999" class="small">S12</text>
<text x="105.0" y="165.0" class="small">S17</text>
<text x="105.0" y="215.0" class="small">S22</text>
<text x="155.0" y="15.0" class="small">S3</text>
<text x="155.0" y="65.0" class="small">S8</text>
<text x="155.0" y="114.99999999999999" class="small">S13</text>
<text x="155.0" y="165.0" class="small">S18</text>
<text x="155.0" y="215.0" class="small">S23</text>
<text x="204.99999999999997" y="15.0" class="small">S4</text>
<text x="204.99999999999997" y="65.0" class="small">S9</text>
<text x="204.99999999999997" y="114.99999999999999" class="small">S14</text>
<text x="204.99999999999997" y="165.0" class="small">S19</text>
<text x="204.99999999999997" y="215.0" class="small">S24</text>

<line x1="0.0" y1="100.0" x2="50.0" y2="100.0"/>
<line x1="50.0" y1="100.0" x2="50.0" y2="150.0"/>
<line x1="0.0" y1="200.0" x2="50.0" y2="200.0"/>
<line x1="0.0" y1="250.0" x2="50.0" y2="250.0"/>
<line x1="50.0" y1="50.0" x2="100.0" y2="50.0"/>
<line x1="100.0" y1="50.0" x2="100.0" y2="100.0"/>
<line x1="50.0" y1="150.0" x2="100.0" y2="150.0"/>
<line x1="50.0" y1="200.0" x2="100.0" y2="200.0"/>
<line x1="50.0" y1="250.0" x2="100.0" y2="250.0"/>
<line x1="100.0" y1="100.0" x2="150.0" y2="100.0"/>
<line x1="100.0" y1="150.0" x2="150.0" y2="150.0"/>
<line x1="150.0" y1="100.0" x2="150.0" y2="150.0"/>
<line x1="150.0" y1="150.0" x2="150.0" y2="200.0"/>
<line x1="100.0" y1="250.0" x2="150.0" y2="250.0"/>
<line x1="150.0" y1="50.0" x2="200.0" y2="50.0"/>
<line x1="200.0" y1="50.0" x2="200.0" y2="100.0"/>
<line x1="200.0" y1="100.0" x2="200.0" y2="150.0"/>
<line x1="150.0" y1="200.0" x2="200.0" y2="200.0"/>
<line x1="150.0" y1="250.0" x2="200.0" y2="250.0"/>
<line x1="250.0" y1="0.0" x2="250.0" y2="50.0"/>
<line x1="250.0" y1="50.0" x2="250.0" y2="100.0"/>
<line x1="200.0" y1="150.0" x2="250.0" y2="150.0"/>
<line x1="250.0" y1="100.0" x2="250.0" y2="150.0"/>
<line x1="250.0" y1="150.0" x2="250.0" y2="200.0"/>
<line x1="200.0" y1="250.0" x2="250.0" y2="250.0"/>
<line x1="250.0" y1="200.0" x2="250.0" y2="250.0"/>

<line x1="0" y1="0" x2="250" y2="0"/>
<line x1="0" y1="0" x2="0" y2="250"/>
</svg>
