<?xml version="1.0" encoding="utf-8"?>
<svg xmlns="http://www.w3.org/2000/svg"
    xmlns:xlink="http://www.w3.org/1999/xlink"
    width="520" height="520" viewBox="-10 -10 520 520">
<defs>
<style type="text/css"><![CDATA[
line {
    stroke: #000000;
    stroke-linecap: square;
    stroke-width: 4;
}
]]>
.small { font: bold 10.0px sans-serif;
         fill: lightgray; }}
</style>
<marker id="arrow" markerWidth="10" markerHeight="7" refX="0" refY="2" orient="auto">
	<polygon points="0 0, 4 2, 0 4" />
</marker>
</defs>
<rect x="0.0" y="0.0" width="50.0" height="50.0" fill="none" stroke="gray" stroke-width="1"/>
<rect x="0.0" y="50.0" width="50.0" height="50.0" fill="none" stroke="gray" stroke-width="1"/>
<rect x="0.0" y="100.0" width="50.0" height="50.0" fill="none" stroke="gray" stroke-width="1"/>
<rect x="0.0" y="150.0" width="50.0" height="50.0" fill="none" stroke="gray" stroke-width="1"/>
<rect x="0.0" y="200.0" width="50.0" height="50.0" fill="none" stroke="gray" stroke-width="1"/>
<rect x="0.0" y="250.0" width="50.0" height="50.0" fill="none" stroke="gray" stroke-width="1"/>
<rect x="0.0" y="300.0" width="50.0" height="50.0" fill="none" stroke="gray" stroke-width="1"/>
<rect x="0.0" y="350.0" width="50.0" height="50.0" fill="none" stroke="gray" stroke-width="1"/>
<rect x="0.0" y="400.0" width="50.0" height="50.0" fill="none" stroke="gray" stroke-width="1"/>
<rect x="0.0" y="450.0" width="50.0" height="50.0" fill="none" stroke="gray" stroke-width="1"/>
<rect x="50.0" y="0.0" width="50.0" height="50.0" fill="none" stroke="gray" stroke-width="1"/>
<rect x="50.0" y="50.0" width="50.0" height="50.0" fill="none" stroke="gray" stroke-width="1"/>
<rect x="50.0" y="100.0" width="50.0" height="50.0" fill="none" stroke="gray" stroke-width="1"/>
<rect x="50.0" y="150.0" width="50.0" height="50.0" fill="none" stroke="gray" stroke-width="1"/>
<rect x="50.0" y="200.0" width="50.0" height="50.0" fill="none" stroke="gray" stroke-width="1"/>
<rect x="50.0" y="250.0" width="50.0" height="50.0" fill="none" stroke="gray" stroke-width="1"/>
<rect x="50.0" y="300.0" width="50.0" height="50.0" fill="none" stroke="gray" stroke-width="1"/>
<rect x="50.0" y="350.0" width="50.0" height="50.0" fill="none" stroke="gray" stroke-width="1"/>
<rect x="50.0" y="400.0" width="50.0" height="50.0" fill="none" stroke="gray" stroke-width="1"/>
<rect x="50.0" y="450.0" width="50.0" height="50.0" fill="none" stroke="gray" stroke-width="1"/>
<rect x="100.0" y="0.0" width="50.0" height="50.0" fill="none" stroke="gray" stroke-width="1"/>
<rect x="100.0" y="50.0" width="50.0" height="50.0" fill="none" stroke="gray" stroke-width="1"/>
<rect x="100.0" y="100.0" width="50.0" height="50.0" fill="none" stroke="gray" stroke-width="1"/>
<rect x="100.0" y="150.0" width="50.0" height="50.0" fill="none" stroke="gray" stroke-width="1"/>
<rect x="100.0" y="200.0" width="50.0" height="50.0" fill="none" stroke="gray" stroke-width="1"/>
<rect x="100.0" y="250.0" width="50.0" height="50.0" fill="none" stroke="gray" stroke-width="1"/>
<rect x="100.0" y="300.0" width="50.0" height="50.0" fill="none" stroke="gray" stroke-width="1"/>
<rect x="100.0" y="350.0" width="50.0" height="50.0" fill="none" stroke="gray" stroke-width="1"/>
<rect x="100.0" y="400.0" width="50.0" height="50.0" fill="none" stroke="gray" stroke-width="1"/>
<rect x="100.0" y="450.0" width="50.0" height="50.0" fill="none" stroke="gray" stroke-width="1"/>
<rect x="150.0" y="0.0" width="50.0" height="50.0" fill="none" stroke="gray" stroke-width="1"/>
<rect x="150.0" y="50.0" width="50.0" height="50.0" fill="none" stroke="gray" stroke-width="1"/>
<rect x="150.0" y="100.0" width="50.0" height="50.0" fill="none" stroke="gray" stroke-width="1"/>
<rect x="150.0" y="150.0" width="50.0" height="50.0" fill="none" stroke="gray" stroke-width="1"/>
<rect x="150.0" y="200.0" width="50.0" height="50.0" fill="none" stroke="gray" stroke-width="1"/>
<rect x="150.0" y="250.0" width="50.0" height="50.0" fill="none" stroke="gray" stroke-width="1"/>
<rect x="150.0" y="300.0" width="50.0" height="50.0" fill="none" stroke="gray" stroke-width="1"/>
<rect x="150.0" y="350.0" width="50.0" height="50.0" fill="none" stroke="gray" stroke-width="1"/>
<rect x="150.0" y="400.0" width="50.0" height="50.0" fill="none" stroke="gray" stroke-width="1"/>
<rect x="150.0" y="450.0" width="50.0" height="50.0" fill="none" stroke="gray" stroke-width="1"/>
<rect x="200.0" y="0.0" width="50.0" height="50.0" fill="none" stroke="gray" stroke-width="1"/>
<rect x="200.0" y="50.0" width="50.0" height="50.0" fill="none" stroke="gray" stroke-width="1"/>
<rect x="200.0" y="100.0" width="50.0" height="50.0" fill="none" stroke="gray" stroke-width="1"/>
<rect x="200.0" y="150.0" width="50.0" height="50.0" fill="none" stroke="gray" stroke-width="1"/>
<rect x="200.0" y="200.0" width="50.0" height="50.0" fill="none" stroke="gray" stroke-width="1"/>
<rect x="200.0" y="250.0" width="50.0" height="50.0" fill="none" stroke="gray" stroke-width="1"/>
<rect x="200.0" y="300.0" width="50.0" height="50.0" fill="none" stroke="gray" stroke-width="1"/>
<rect x="200.0" y="350.0" width="50.0" height="50.0" fill="none" stroke="gray" stroke-width="1"/>
<rect x="200.0" y="400.0" width="50.0" height="50.0" fill="none" stroke="gray" stroke-width="1"/>
<rect x="200.0" y="450.0" width="50.0" height="50.0" fill="none" stroke="gray" stroke-width="1"/>
<rect x="250.0" y="0.0" width="50.0" height="50.0" fill="none" stroke="gray" stroke-width="1"/>
<rect x="250.0" y="50.0" width="50.0" height="50.0" fill="none" stroke="gray" stroke-width="1"/>
<rect x="250.0" y="100.0" width="50.0" height="50.0" fill="none" stroke="gray" stroke-width="1"/>
<rect x="250.0" y="150.0" width="50.0" height="50.0" fill="none" stroke="gray" stroke-width="1"/>
<rect x="250.0" y="200.0" width="50.0" height="50.0" fill="none" stroke="gray" stroke-width="1"/>
<rect x="250.0" y="250.0" width="50.0" height="50.0" fill="none" stroke="gray" stroke-width="1"/>
<rect x="250.0" y="300.0" width="50.0" height="50.0" fill="none" stroke="gray" stroke-width="1"/>
<rect x="250.0" y="350.0" width="50.0" height="50.0" fill="none" stroke="gray" stroke-width="1"/>
<rect x="250.0" y="400.0" width="50.0" height="50.0" fill="none" stroke="gray" stroke-width="1"/>
<rect x="250.0" y="450.0" width="50.0" height="50.0" fill="none" stroke="gray" stroke-width="1"/>
<rect x="300.0" y="0.0" width="50.0" height="50.0" fill="none" stroke="gray" stroke-width="1"/>
<rect x="300.0" y="50.0" width="50.0" height="50.0" fill="none" stroke="gray" stroke-width="1"/>
<rect x="300.0" y="100.0" width="50.0" height="50.0" fill="none" stroke="gray" stroke-width="1"/>
<rect x="300.0" y="150.0" width="50.0" height="50.0" fill="none" stroke="gray" stroke-width="1"/>
<rect x="300.0" y="200.0" width="50.0" height="50.0" fill="none" stroke="gray" stroke-width="1"/>
<rect x="300.0" y="250.0" width="50.0" height="50.0" fill="none" stroke="gray" stroke-width="1"/>
<rect x="300.0" y="300.0" width="50.0" height="50.0" fill="none" stroke="gray" stroke-width="1"/>
<rect x="300.0" y="350.0" width="50.0" height="50.0" fill="none" stroke="gray" stroke-width="1"/>
<rect x="300.0" y="400.0" width="50.0" height="50.0" fill="none" stroke="gray" stroke-width="1"/>
<rect x="300.0" y="450.0" width="50.0" height="50.0" fill="none" stroke="gray" stroke-width="1"/>
<rect x="350.0" y="0.0" width="50.0" height="50.0" fill="none" stroke="gray" stroke-width="1"/>
<rect x="350.0" y="50.0" width="50.0" height="50.0" fill="none" stroke="gray" stroke-width="1"/>
<rect x="350.0" y="100.0" width="50.0" height="50.0" fill="none" stroke="gray" stroke-width="1"/>
<rect x="350.0" y="150.0" width="50.0" height="50.0" fill="none" stroke="gray" stroke-width="1"/>
<rect x="350.0" y="200.0" width="50.0" height="50.0" fill="none" stroke="gray" stroke-width="1"/>
<rect x="350.0" y="250.0" width="50.0" height="50.0" fill="none" stroke="gray" stroke-width="1"/>
<rect x="350.0" y="300.0" width="50.0" height="50.0" fill="none" stroke="gray" stroke-width="1"/>
<rect x="350.0" y="350.0" width="50.0" height="50.0" fill="none" stroke="gray" stroke-width="1"/>
<rect x="350.0" y="400.0" width="50.0" height="50.0" fill="none" stroke="gray" stroke-width="1"/>
<rect x="350.0" y="450.0" width="50.0" height="50.0" fill="none" stroke="gray" stroke-width="1"/>
<rect x="400.0" y="0.0" width="50.0" height="50.0" fill="none" stroke="gray" stroke-width="1"/>
<rect x="400.0" y="50.0" width="50.0" height="50.0" fill="none" stroke="gray" stroke-width="1"/>
<rect x="400.0" y="100.0" width="50.0" height="50.0" fill="none" stroke="gray" stroke-width="1"/>
<rect x="400.0" y="150.0" width="50.0" height="50.0" fill="none" stroke="gray" stroke-width="1"/>
<rect x="400.0" y="200.0" width="50.0" height="50.0" fill="none" stroke="gray" stroke-width="1"/>
<rect x="400.0" y="250.0" width="50.0" height="50.0" fill="none" stroke="gray" stroke-width="1"/>
<rect x="400.0" y="300.0" width="50.0" height="50.0" fill="none" stroke="gray" stroke-width="1"/>
<rect x="400.0" y="350.0" width="50.0" height="50.0" fill="none" stroke="gray" stroke-width="1"/>
<rect x="400.0" y="400.0" width="50.0" height="50.0" fill="none" stroke="gray" stroke-width="1"/>
<rect x="400.0" y="450.0" width="50.0" height="50.0" fill="none" stroke="gray" stroke-width="1"/>
<rect x="450.0" y="0.0" width="50.0" height="50.0" fill="none" stroke="gray" stroke-width="1"/>
<rect x="450.0" y="50.0" width="50.0" height="50.0" fill="none" stroke="gray" stroke-width="1"/>
<rect x="450.0" y="100.0" width="50.0" height="50.0" fill="none" stroke="gray" stroke-width="1"/>
<rect x="450.0" y="150.0" width="50.0" height="50.0" fill="none" stroke="gray" stroke-width="1"/>
<rect x="450.0" y="200.0" width="50.0" height="50.0" fill="none" stroke="gray" stroke-width="1"/>
<rect x="450.0" y="250.0" width="50.0" height="50.0" fill="none" stroke="gray" stroke-width="1"/>
<rect x="450.0" y="300.0" width="50.0" height="50.0" fill="none" stroke="gray" stroke-width="1"/>
<rect x="450.0" y="350.0" width="50.0" height="50.0" fill="none" stroke="gray" stroke-width="1"/>
<rect x="450.0" y="400.0" width="50.0" height="50.0" fill="none" stroke="gray" stroke-width="1"/>
<rect x="450.0" y="450.0" width="50.0" height="50.0" fill="none" stroke="gray" stroke-width="1"/>

<text x="5.0" y="15.0" class="small">S0</text>
<text x="5.0" y="65.0" class="small">S10</text>
<text x="5.0" y="114.99999999999999" class="small">S20</text>
<text x="5.0" y="165.0" class="small">S30</text>
<text x="5.0" y="215.0" class="small">S40</text>
<text x="5.0" y="265.0" class="small">S50</text>
<text x="5.0" y="315.0" class="small">S60</text>
<text x="5.0" y="365.0" class="small">S70</text>
<text x="5.0" y="415.00000000000006" class="small">S80</text>
<text x="5.0" y="465.00000000000006" class="small">S90</text>
<text x="55.00000000000001" y="15.0" class="small">S1</text>
<text x="55.00000000000001" y="65.0" class="small">S11</text>
<text x="55.00000000000001" y="114.99999999999999" class="small">S21</text>
<text x="55.00000000000001" y="165.0" class="small">S31</text>
<text x="55.00000000000001" y="215.0" class="small">S41</text>
<text x="55.00000000000001" y="265.0" class="small">S51</text>
<text x="55.00000000000001" y="315.0" class="small">S61</text>
<text x="55.00000000000001" y="365.0" class="small">S71</text>
<text x="55.00000000000001" y="415.00000000000006" class="small">S81</text>
<text x="55.00000000000001" y="465.00000000000006" class="small">S91</text>
<text x="105.0" y="15.0" class="small">S2</text>
<text x="105.0" y="65.0" class="small">S12</text>
<text x="105.0" y="114.99999999999999" class="small">S22</text>
<text x="105.0" y="165.0" class="small">S32</text>
<text x="105.0" y="215.0" class="small">S42</text>
<text x="105.0" y="265.0" class="small">S52</text>
<text x="105.0" y="315.0" class="small">S62</text>
<text x="105.0" y="365.0" class="small">S72</text>
<text x="105.0" y="415.00000000000006" class="small">S82</text>
<text x="105.0" y="465.00000000000006" class="small">S92</text>
<text x="155.0" y="15.0" class="small">S3</text>
<text x="155.0" y="65.0" class="small">S13</text>
<text x="155.0" y="114.99999999999999" class="small">S23</text>
<text x="155.0" y="165.0" class="small">S33</text>
<text x="155.0" y="215.0" class="small">S43</text>
<text x="155.0" y="265.0" class="small">S53</text>
<text x="155.0" y="315.0" class="small">S63</text>
<text x="155.0" y="365.0" class="small">S73</text>
<text x="155.0" y="415.00000000000006" class="small">S83</text>
<text x="155.0" y="465.00000000000006" class="small">S93</text>
<text x="204.99999999999997" y="15.0" class="small">S4</text>
<text x="204.99999999999997" y="65.0" class="small">S14</text>
<text x="204.99999999999997" y="114.99999999999999" class="small">S24</text>
<text x="204.99999999999997" y="165.0" class="small">S34</text>
<text x="204.99999999999997" y="215.0" class="small">S44</text>
<text x="204.99999999999997" y="265.0" class="small">S54</text>
<text x="204.99999999999997" y="315.0" class="small">S64</text>
<text x="204.99999999999997" y="365.0" class="small">S74</text>
<text x="204.99999999999997" y="415.00000000000006" class="small">S84</text>
<text x="204.99999999999997" y="465.00000000000006" class="small">S94</text>
<text x="254.99999999999997" y="15.0" class="small">S5</text>
<text x="254.99999999999997" y="65.0" class="small">S15</text>
<text x="254.99999999999997" y="114.99999999999999" class="small">S25</text>
<text x="254.99999999999997" y="165.0" class="small">S35</text>
<text x="254.99999999999997" y="215.0" class="small">S45</text>
<text x="254.99999999999997" y="265.0" class="small">S55</text>
<text x="254.99999999999997" y="315.0" class="small">S65</text>
<text x="254.99999999999997" y="365.0" class="small">S75</text>
<text x="254.99999999999997" y="415.00000000000006" class="small">S85</text>
<text x="254.99999999999997" y="465.00000000000006" class="small">S95</text>
<text x="305.0" y="15.0" class="small">S6</text>
<text x="305.0" y="65.0" class="small">S16</text>
<text x="305.0" y="114.99999999999999" class="small">S26</text>
<text x="305.0" y="165.0" class="small">S36</text>
<text x="305.0" y="215.0" class="small">S46</text>
<text x="305.0" y="265.0" class="small">S56</text>
<text x="305.0" y="315.0" class="small">S66</text>
<text x="305.0" y="365.0" class="small">S76</text>
<text x="305.0" y="415.00000000000006" class="small">S86</text>
<text x="305.0" y="465.00000000000006" class="small">S96</text>
<text x="355.0" y="15.0" class="small">S7</text>
<text x="355.0" y="65.0" class="small">S17</text>
<text x="355.0" y="114.99999999999999" class="small">S27</text>
<text x="355.0" y="165.0" class="small">S37</text>
<text x="355.0" y="215.0" class="small">S47</text>
<text x="355.0" y="265.0" class="small">S57</text>
<text x="355.0" y="315.0" class="small">S67</text>
<text x="355.0" y="365.0" class="small">S77</text>
<text x="355.0" y="415.00000000000006" class="small">S87</text>
<text x="355.0" y="465.00000000000006" class="small">S97</text>
<text x="405.0" y="15.0" class="small">S8</text>
<text x="405.0" y="65.0" class="small">S18</text>
<text x="405.0" y="114.99999999999999" class="small">S28</text>
<text x="405.0" y="165.0" class="small">S38</text>
<text x="405.0" y="215.0" class="small">S48</text>
<text x="405.0" y="265.0" class="small">S58</text>
<text x="405.0" y="315.0" class="small">S68</text>
<text x="405.0" y="365.0" class="small">S78</text>
<text x="405.0" y="415.00000000000006" class="small">S88</text>
<text x="405.0" y="465.00000000000006" class="small">S98</text>
<text x="455.0" y="15.0" class="small">S9</text>
<text x="455.0" y="65.0" class="small">S19</text>
<text x="455.0" y="114.99999999999999" class="small">S29</text>
<text x="455.0" y="165.0" class="small">S39</text>
<text x="455.0" y="215.0" class="small">S49</text>
<text x="455.0" y="265.0" class="small">S59</text>
<text x="455.0" y="315.0" class="small">S69</text>
<text x="455.0" y="365.0" class="small">S79</text>
<text x="455.0" y="415.00000000000006" class="small">S89</text>
<text x="455.0" y="465.00000000000006" class="small">S99</text>

<line x1="50.0" y1="0.0" x2="50.0" y2="50.0"/>
<line x1="0.0" y1="100.0" x2="50.0" y2="100.0"/>
<line x1="50.0" y1="200.0" x2="50.0" y2="250.0"/>
<line x1="50.0" y1="250.0" x2="50.0" y2="300.0"/>
<line x1="0.0" y1="400.0" x2="50.0" y2="400.0"/>
<line x1="50.0" y1="350.0" x2="50.0" y2="400.0"/>
<line x1="0.0" y1="500.0" x2="50.0" y2="500.0"/>
<line x1="50.0" y1="100.0" x2="100.0" y2="100.0"/>
<line x1="100.0" y1="50.0" x2="100.0" y2="100.0"/>
<line x1="50.0" y1="150.0" x2="100.0" y2="150.0"/>
<line x1="100.0" y1="150.0" x2="100.0" y2="200.0"/>
<line x1="50.0" y1="250.0" x2="100.0" y2="250.0"/>
<line x1="100.0" y1="250.0" x2="100.0" y2="300.0"/>
<line x1="50.0" y1="350.0" x2="100.0" y2="350.0"/>
<line x1="100.0" y1="300.0" x2="100.0" y2="350.0"/>
<line x1="50.0" y1="450.0" x2="100.0" y2="450.0"/>
<line x1="100.0" y1="400.0" x2="100.0" y2="450.0"/>
<line x1="50.0" y1="500.0" x2="100.0" y2="500.0"/>
<line x1="150.0" y1="50.0" x2="150.0" y2="100.0"/>
<line x1="100.0" y1="150.0" x2="150.0" y2="150.0"/>
<line x1="100.0" y1="200.0" x2="150.0" y2="200.0"/>
<line x1="150.0" y1="200.0" x2="150.0" y2="250.0"/>
<line x1="150.0" y1="250.0" x2="150.0" y2="300.0"/>
<line x1="150.0" y1="300.0" x2="150.0" y2="350.0"/>
<line x1="100.0" y1="400.0" x2="150.0" y2="400.0"/>
<line x1="150.0" y1="350.0" x2="150.0" y2="400.0"/>
<line x1="100.0" y1="500.0" x2="150.0" y2="500.0"/>
<line x1="150.0" y1="450.0" x2="150.0" y2="500.0"/>
<line x1="150.0" y1="50.0" x2="200.0" y2="50.0"/>
<line x1="200.0" y1="0.0" x2="200.0" y2="50.0"/>
<line x1="150.0" y1="100.0" x2="200.0" y2="100.0"/>
<line x1="200.0" y1="100.0" x2="200.0" y2="150.0"/>
<line x1="200.0" y1="150.0" x2="200.0" y2="200.0"/>
<line x1="200.0" y1="200.0" x2="200.0" y2="250.0"/>
<line x1="150.0" y1="300.0" x2="200.0" y2="300.0"/>
<line x1="150.0" y1="400.0" x2="200.0" y2="400.0"/>
<line x1="200.0" y1="350.0" x2="200.0" y2="400.0"/>
<line x1="200.0" y1="400.0" x2="200.0" y2="450.0"/>
<line x1="150.0" y1="500.0" x2="200.0" y2="500.0"/>
<line x1="200.0" y1="100.0" x2="250.0" y2="100.0"/>
<line x1="250.0" y1="50.0" x2="250.0" y2="100.0"/>
<line x1="200.0" y1="200.0" x2="250.0" y2="200.0"/>
<line x1="200.0" y1="300.0" x2="250.0" y2="300.0"/>
<line x1="250.0" y1="250.0" x2="250.0" y2="300.0"/>
<line x1="200.0" y1="350.0" x2="250.0" y2="350.0"/>
<line x1="200.0" y1="450.0" x2="250.0" y2="450.0"/>
<line x1="200.0" y1="500.0" x2="250.0" y2="500.0"/>
<line x1="300.0" y1="0.0" x2="300.0" y2="50.0"/>
<line x1="250.0" y1="100.0" x2="300.0" y2="100.0"/>
<line x1="250.0" y1="150.0" x2="300.0" y2="150.0"/>
<line x1="250.0" y1="200.0" x2="300.0" y2="200.0"/>
<line x1="300.0" y1="200.0" x2="300.0" y2="250.0"/>
<line x1="300.0" y1="250.0" x2="300.0" y2="300.0"/>
<line x1="250.0" y1="350.0" x2="300.0" y2="350.0"/>
<line x1="250.0" y1="400.0" x2="300.0" y2="400.0"/>
<line x1="250.0" y1="450.0" x2="300.0" y2="450.0"/>
<line x1="250.0" y1="500.0" x2="300.0" y2="500.0"/>
<line x1="300.0" y1="50.0" x2="350.0" y2="50.0"/>
<line x1="350.0" y1="50.0" x2="350.0" y2="100.0"/>
<line x1="300.0" y1="150.0" x2="350.0" y2="150.0"/>
<line x1="350.0" y1="100.0" x2="350.0" y2="150.0"/>
<line x1="350.0" y1="150.0" x2="350.0" y2="200.0"/>
<line x1="350.0" y1="200.0" x2="350.0" y2="250.0"/>
<line x1="300.0" y1="300.0" x2="350.0" y2="300.0"/>
<line x1="300.0" y1="350.0" x2="350.0" y2="350.0"/>
<line x1="300.0" y1="400.0" x2="350.0" y2="400.0"/>
<line x1="350.0" y1="400.0" x2="350.0" y2="450.0"/>
<line x1="300.0" y1="500.0" x2="350.0" y2="500.0"/>
<line x1="400.0" y1="50.0" x2="400.0" y2="100.0"/>
<line x1="400.0" y1="100.0" x2="400.0" y2="150.0"/>
<line x1="350.0" y1="200.0" x2="400.0" y2="200.0"/>
<line x1="350.0" y1="300.0" x2="400.0" y2="300.0"/>
<line x1="400.0" y1="250.0" x2="400.0" y2="300.0"/>
<line x1="350.0" y1="350.0" x2="400.0" y2="350.0"/>
<line x1="400.0" y1="300.0" x2="400.0" y2="350.0"/>
<line x1="350.0" y1="400.0" x2="400.0" y2="400.0"/>
<line x1="400.0" y1="400.0" x2="400.0" y2="450.0"/>
<line x1="350.0" y1="500.0" x2="400.0" y2="500.0"/>
<line x1="450.0" y1="0.0" x2="450.0" y2="50.0"/>
<line x1="400.0" y1="100.0" x2="450.0" y2="100.0"/>
<line x1="400.0" y1="200.0" x2="450.0" y2="200.0"/>
<line x1="450.0" y1="150.0" x2="450.0" y2="200.0"/>
<line x1="450.0" y1="200.0" x2="450.0" y2="250.0"/>
<line x1="450.0" y1="250.0" x2="450.0" y2="300.0"/>
<line x1="400.0" y1="350.0" x2="450.0" y2="350.0"/>
<line x1="450.0" y1="350.0" x2="450.0" y2="400.0"/>
<line x1="400.0" y1="450.0" x2="450.0" y2="450.0"/>
<line x1="400.0" y1="500.0" x2="450.0" y2="500.0"/>
<line x1="500.0" y1="0.0" x2="500.0" y2="50.0"/>
<line x1="450.0" y1="100.0" x2="500.0" y2="100.0"/>
<line x1="500.0" y1="50.0" x2="500.0" y2="100.0"/>
<line x1="500.0" y1="100.0" x2="500.0" y2="150.0"/>
<line x1="500.0" y1="150.0" x2="500.0" y2="200.0"/>
<line x1="500.0" y1="200.0" x2="500.0" y2="250.0"/>
<line x1="500.0" y1="250.0" x2="500.0" y2="300.0"/>
<line x1="500.0" y1="300.0" x2="500.0" y2="350.0"/>
<line x1="500.0" y1="350.0" x2="500.0" y2="400.0"/>
<line x1="450.0" y1="450.0" x2="500.0" y2="450.0"/>
<line x1="500.0" y1="400.0" x2="500.0" y2="450.0"/>
<line x1="450.0" y1="500.0" x2="500.0" y2="500.0"/>
<line x1="500.0" y1="450.0" x2="500.0" y2="500.0"/>

<line x1="0" y1="0" x2="500" y2="0"/>
<line x1="0" y1="0" x2="0" y2="500"/>
</svg>
