<?xml version="1.0" encoding="utf-8"?>
<svg xmlns="http://www.w3.org/2000/svg"
    xmlns:xlink="http://www.w3.org/1999/xlink"
    width="270" height="270" viewBox="-10 -10 270 270">
<defs>
<style type="text/css"><![CDATA[
line {
    stroke: #000000;
    stroke-linecap: square;
    stroke-width: 4;
}
]]>
.small { font: bold 10.0px sans-serif;
         fill: lightgray; }}
</style>
</defs>
<!--Add Grid Layout-->
<rect x="0" y="0" width="50" height="50" fill="none" stroke="gray" stroke-width="1"/>
<rect x="0" y="50" width="50" height="50" fill="none" stroke="gray" stroke-width="1"/>
<rect x="0" y="100" width="50" height="50" fill="none" stroke="gray" stroke-width="1"/>
<rect x="0" y="150" width="50" height="50" fill="none" stroke="gray" stroke-width="1"/>
<rect x="0" y="200" width="50" height="50" fill="none" stroke="gray" stroke-width="1"/>
<rect x="50" y="0" width="50" height="50" fill="none" stroke="gray" stroke-width="1"/>
<rect x="50" y="50" width="50" height="50" fill="none" stroke="gray" stroke-width="1"/>
<rect x="50" y="100" width="50" height="50" fill="none" stroke="gray" stroke-width="1"/>
<rect x="50" y="150" width="50" height="50" fill="none" stroke="gray" stroke-width="1"/>
<rect x="50" y="200" width="50" height="50" fill="none" stroke="gray" stroke-width="1"/>
<rect x="100" y="0" width="50" height="50" fill="none" stroke="gray" stroke-width="1"/>
<rect x="100" y="50" width="50" height="50" fill="none" stroke="gray" stroke-width="1"/>
<rect x="100" y="100" width="50" height="50" fill="none" stroke="gray" stroke-width="1"/>
<rect x="100" y="150" width="50" height="50" fill="none" stroke="gray" stroke-width="1"/>
<rect x="100" y="200" width="50" height="50" fill="none" stroke="gray" stroke-width="1"/>
<rect x="150" y="0" width="50" height="50" fill="none" stroke="gray" stroke-width="1"/>
<rect x="150" y="50" width="50" height="50" fill="none" stroke="gray" stroke-width="1"/>
<rect x="150" y="100" width="50" height="50" fill="none" stroke="gray" stroke-width="1"/>
<rect x="150" y="150" width="50" height="50" fill="none" stroke="gray" stroke-width="1"/>
<rect x="150" y="200" width="50" height="50" fill="none" stroke="gray" stroke-width="1"/>
<rect x="200" y="0" width="50" height="50" fill="none" stroke="gray" stroke-width="1"/>
<rect x="200" y="50" width="50" height="50" fill="none" stroke="gray" stroke-width="1"/>
<rect x="200" y="100" width="50" height="50" fill="green" stroke="gray" stroke-width="1"/>
<rect x="200" y="150" width="50" height="50" fill="none" stroke="gray" stroke-width="1"/>
<rect x="200" y="200" width="50" height="50" fill="none" stroke="gray" stroke-width="1"/>

<!--Add Coordinates-->
<text x="5" y="15" class="small">S0</text>
<text x="5" y="65" class="small">S5</text>
<text x="5" y="114" class="small">S10</text>
<text x="5" y="165" class="small">S15</text>
<text x="5" y="215" class="small">S20</text>
<text x="55" y="15" class="small">S1</text>
<text x="55" y="65" class="small">S6</text>
<text x="55" y="114" class="small">S11</text>
<text x="55" y="165" class="small">S16</text>
<text x="55" y="215" class="small">S21</text>
<text x="105" y="15" class="small">S2</text>
<text x="105" y="65" class="small">S7</text>
<text x="105" y="114" class="small">S12</text>
<text x="105" y="165" class="small">S17</text>
<text x="105" y="215" class="small">S22</text>
<text x="155" y="15" class="small">S3</text>
<text x="155" y="65" class="small">S8</text>
<text x="155" y="114" class="small">S13</text>
<text x="155" y="165" class="small">S18</text>
<text x="155" y="215" class="small">S23</text>
<text x="204" y="15" class="small">S4</text>
<text x="204" y="65" class="small">S9</text>
<text x="204" y="114" class="small">S14</text>
<text x="204" y="165" class="small">S19</text>
<text x="204" y="215" class="small">S24</text>

<!--Add Walls-->
<line x1="0" y1="100" x2="50" y2="100"/>
<line x1="50" y1="100" x2="50" y2="150"/>
<line x1="0" y1="200" x2="50" y2="200"/>
<line x1="0" y1="250" x2="50" y2="250"/>
<line x1="50" y1="50" x2="100" y2="50"/>
<line x1="100" y1="50" x2="100" y2="100"/>
<line x1="50" y1="150" x2="100" y2="150"/>
<line x1="50" y1="200" x2="100" y2="200"/>
<line x1="50" y1="250" x2="100" y2="250"/>
<line x1="100" y1="100" x2="150" y2="100"/>
<line x1="100" y1="150" x2="150" y2="150"/>
<line x1="150" y1="100" x2="150" y2="150"/>
<line x1="150" y1="150" x2="150" y2="200"/>
<line x1="100" y1="250" x2="150" y2="250"/>
<line x1="150" y1="50" x2="200" y2="50"/>
<line x1="200" y1="50" x2="200" y2="100"/>
<line x1="200" y1="100" x2="200" y2="150"/>
<line x1="150" y1="200" x2="200" y2="200"/>
<line x1="150" y1="250" x2="200" y2="250"/>
<line x1="250" y1="0" x2="250" y2="50"/>
<line x1="250" y1="50" x2="250" y2="100"/>
<line x1="200" y1="150" x2="250" y2="150"/>
<line x1="250" y1="100" x2="250" y2="150"/>
<line x1="250" y1="150" x2="250" y2="200"/>
<line x1="200" y1="250" x2="250" y2="250"/>
<line x1="250" y1="200" x2="250" y2="250"/>

<!--Add the north and west maze border-->
<line x1="0" y1="0" x2="250" y2="0"/>
<line x1="0" y1="0" x2="0" y2="250"/>
</svg>
