<?xml version="1.0" encoding="utf-8"?>
<svg xmlns="http://www.w3.org/2000/svg"
    xmlns:xlink="http://www.w3.org/1999/xlink"
    width="270" height="270" viewBox="-10 -10 270 270">
<defs>
<style type="text/css"><![CDATA[
line {
    stroke: #000000;
    stroke-linecap: square;
    stroke-width: 4;
}
]]>
.small { font: bold 10.0px sans-serif;
         fill: lightgray; }}
</style>
<style type="text/css"><![CDATA[
line {
    stroke: #000000;
    stroke-linecap: square;
    stroke-width: 4;
}
]]>
.qVal { font: 5.0px monospace;
         fill: black; }}
</style>
<marker id="arrow" markerWidth="25.0" markerHeight="12.5" refX="0" refY="2.5" orient="auto">
	<polygon points="0 0, 5.0 2.5, 0 5.0" />
</marker>
</defs>
<!--Add Grid Layout-->
<rect x="0" y="0" width="50" height="50" fill="none" stroke="gray" stroke-width="1"/>
<rect x="0" y="50" width="50" height="50" fill="none" stroke="gray" stroke-width="1"/>
<rect x="0" y="100" width="50" height="50" fill="green" stroke="gray" stroke-width="1"/>
<rect x="0" y="150" width="50" height="50" fill="none" stroke="gray" stroke-width="1"/>
<rect x="0" y="200" width="50" height="50" fill="none" stroke="gray" stroke-width="1"/>
<rect x="50" y="0" width="50" height="50" fill="none" stroke="gray" stroke-width="1"/>
<rect x="50" y="50" width="50" height="50" fill="none" stroke="gray" stroke-width="1"/>
<rect x="50" y="100" width="50" height="50" fill="none" stroke="gray" stroke-width="1"/>
<rect x="50" y="150" width="50" height="50" fill="none" stroke="gray" stroke-width="1"/>
<rect x="50" y="200" width="50" height="50" fill="none" stroke="gray" stroke-width="1"/>
<rect x="100" y="0" width="50" height="50" fill="none" stroke="gray" stroke-width="1"/>
<rect x="100" y="50" width="50" height="50" fill="none" stroke="gray" stroke-width="1"/>
<rect x="100" y="100" width="50" height="50" fill="none" stroke="gray" stroke-width="1"/>
<rect x="100" y="150" width="50" height="50" fill="none" stroke="gray" stroke-width="1"/>
<rect x="100" y="200" width="50" height="50" fill="none" stroke="gray" stroke-width="1"/>
<rect x="150" y="0" width="50" height="50" fill="none" stroke="gray" stroke-width="1"/>
<rect x="150" y="50" width="50" height="50" fill="none" stroke="gray" stroke-width="1"/>
<rect x="150" y="100" width="50" height="50" fill="none" stroke="gray" stroke-width="1"/>
<rect x="150" y="150" width="50" height="50" fill="none" stroke="gray" stroke-width="1"/>
<rect x="150" y="200" width="50" height="50" fill="none" stroke="gray" stroke-width="1"/>
<rect x="200" y="0" width="50" height="50" fill="none" stroke="gray" stroke-width="1"/>
<rect x="200" y="50" width="50" height="50" fill="none" stroke="gray" stroke-width="1"/>
<rect x="200" y="100" width="50" height="50" fill="none" stroke="gray" stroke-width="1"/>
<rect x="200" y="150" width="50" height="50" fill="none" stroke="gray" stroke-width="1"/>
<rect x="200" y="200" width="50" height="50" fill="none" stroke="gray" stroke-width="1"/>

<!--Add Coordinates-->
<text x="5" y="15" class="small">S0</text>
<text x="5" y="65" class="small">S5</text>
<text x="5" y="114" class="small">S10</text>
<text x="5" y="165" class="small">S15</text>
<text x="5" y="215" class="small">S20</text>
<text x="55" y="15" class="small">S1</text>
<text x="55" y="65" class="small">S6</text>
<text x="55" y="114" class="small">S11</text>
<text x="55" y="165" class="small">S16</text>
<text x="55" y="215" class="small">S21</text>
<text x="105" y="15" class="small">S2</text>
<text x="105" y="65" class="small">S7</text>
<text x="105" y="114" class="small">S12</text>
<text x="105" y="165" class="small">S17</text>
<text x="105" y="215" class="small">S22</text>
<text x="155" y="15" class="small">S3</text>
<text x="155" y="65" class="small">S8</text>
<text x="155" y="114" class="small">S13</text>
<text x="155" y="165" class="small">S18</text>
<text x="155" y="215" class="small">S23</text>
<text x="204" y="15" class="small">S4</text>
<text x="204" y="65" class="small">S9</text>
<text x="204" y="114" class="small">S14</text>
<text x="204" y="165" class="small">S19</text>
<text x="204" y="215" class="small">S24</text>

<!--Add Walls-->
<line x1="0" y1="100" x2="50" y2="100"/>
<line x1="50" y1="100" x2="50" y2="150"/>
<line x1="0" y1="200" x2="50" y2="200"/>
<line x1="0" y1="250" x2="50" y2="250"/>
<line x1="50" y1="50" x2="100" y2="50"/>
<line x1="100" y1="50" x2="100" y2="100"/>
<line x1="50" y1="150" x2="100" y2="150"/>
<line x1="50" y1="200" x2="100" y2="200"/>
<line x1="50" y1="250" x2="100" y2="250"/>
<line x1="100" y1="100" x2="150" y2="100"/>
<line x1="100" y1="150" x2="150" y2="150"/>
<line x1="150" y1="100" x2="150" y2="150"/>
<line x1="150" y1="150" x2="150" y2="200"/>
<line x1="100" y1="250" x2="150" y2="250"/>
<line x1="150" y1="50" x2="200" y2="50"/>
<line x1="200" y1="50" x2="200" y2="100"/>
<line x1="200" y1="100" x2="200" y2="150"/>
<line x1="150" y1="200" x2="200" y2="200"/>
<line x1="150" y1="250" x2="200" y2="250"/>
<line x1="250" y1="0" x2="250" y2="50"/>
<line x1="250" y1="50" x2="250" y2="100"/>
<line x1="200" y1="150" x2="250" y2="150"/>
<line x1="250" y1="100" x2="250" y2="150"/>
<line x1="250" y1="150" x2="250" y2="200"/>
<line x1="200" y1="250" x2="250" y2="250"/>
<line x1="250" y1="200" x2="250" y2="250"/>

<!--Add action arrows and Q-Values-->
<line x1="15.000000000000002" y1="25.0" x2="20.0" y2="25.0" stroke="#000" stroke-width="4" marker-end="url(#arrow)" />
<text x="5" y="45" class="qVal">-4.827678501493</text>
<line x1="65.0" y1="25.0" x2="70.0" y2="25.0" stroke="#000" stroke-width="4" marker-end="url(#arrow)" />
<text x="55" y="45" class="qVal">-4.374489715992</text>
<line x1="125.0" y1="15.000000000000002" x2="125.0" y2="20.0" stroke="#000" stroke-width="4" marker-end="url(#arrow)" />
<text x="105" y="45" class="qVal">-3.856559675420</text>
<line x1="184.99999999999997" y1="25.0" x2="179.99999999999997" y2="25.0" stroke="#000" stroke-width="4" marker-end="url(#arrow)" />
<text x="155" y="45" class="qVal">-4.374489715992</text>
<line x1="234.99999999999997" y1="25.0" x2="229.99999999999997" y2="25.0" stroke="#000" stroke-width="4" marker-end="url(#arrow)" />
<text x="204" y="45" class="qVal">-4.827678501493</text>
<line x1="25.0" y1="90.0" x2="25.0" y2="85.0" stroke="#000" stroke-width="4" marker-end="url(#arrow)" />
<text x="5" y="95" class="qVal">-5.224218688807</text>
<line x1="85.0" y1="75.0" x2="80.0" y2="75.0" stroke="#000" stroke-width="4" marker-end="url(#arrow)" />
<text x="55" y="95" class="qVal">-5.571191352706</text>
<line x1="115.00000000000001" y1="75.0" x2="120.00000000000001" y2="75.0" stroke="#000" stroke-width="4" marker-end="url(#arrow)" />
<text x="105" y="95" class="qVal">-3.264639629051</text>
<line x1="175.0" y1="65.0" x2="175.0" y2="70.0" stroke="#000" stroke-width="4" marker-end="url(#arrow)" />
<text x="155" y="95" class="qVal">-2.588159576058</text>
<line x1="225.0" y1="90.0" x2="225.0" y2="85.0" stroke="#000" stroke-width="4" marker-end="url(#arrow)" />
<text x="204" y="95" class="qVal">-5.224218688807</text>
<line x1="75.0" y1="140.0" x2="75.0" y2="135.0" stroke="#000" stroke-width="4" marker-end="url(#arrow)" />
<text x="55" y="145" class="qVal">-5.874792433618</text>
<line x1="134.99999999999997" y1="125.0" x2="129.99999999999997" y2="125.0" stroke="#000" stroke-width="4" marker-end="url(#arrow)" />
<text x="105" y="145" class="qVal">-6.140443379415</text>
<line x1="175.0" y1="115.00000000000001" x2="175.0" y2="120.00000000000001" stroke="#000" stroke-width="4" marker-end="url(#arrow)" />
<text x="155" y="145" class="qVal">-1.815039515495</text>
<line x1="225.0" y1="140.0" x2="225.0" y2="135.0" stroke="#000" stroke-width="4" marker-end="url(#arrow)" />
<text x="204" y="145" class="qVal">-5.571191352706</text>
<line x1="25.0" y1="190.0" x2="25.0" y2="185.0" stroke="#000" stroke-width="4" marker-end="url(#arrow)" />
<text x="5" y="195" class="qVal">10.000000000000</text>
<line x1="85.0" y1="175.0" x2="80.0" y2="175.0" stroke="#000" stroke-width="4" marker-end="url(#arrow)" />
<text x="55" y="195" class="qVal">7.750000000000</text>
<line x1="134.99999999999997" y1="175.0" x2="129.99999999999997" y2="175.0" stroke="#000" stroke-width="4" marker-end="url(#arrow)" />
<text x="105" y="195" class="qVal">5.781250000000</text>
<line x1="165.0" y1="175.0" x2="170.0" y2="175.0" stroke="#000" stroke-width="4" marker-end="url(#arrow)" />
<text x="155" y="195" class="qVal">-0.931473731995</text>
<line x1="225.0" y1="165.0" x2="225.0" y2="170.0" stroke="#000" stroke-width="4" marker-end="url(#arrow)" />
<text x="204" y="195" class="qVal">0.078315734863</text>
<line x1="15.000000000000002" y1="225.0" x2="20.0" y2="225.0" stroke="#000" stroke-width="4" marker-end="url(#arrow)" />
<text x="5" y="245" class="qVal">1.232360839844</text>
<line x1="65.0" y1="225.0" x2="70.0" y2="225.0" stroke="#000" stroke-width="4" marker-end="url(#arrow)" />
<text x="55" y="245" class="qVal">2.551269531250</text>
<line x1="125.0" y1="240.0" x2="125.0" y2="235.0" stroke="#000" stroke-width="4" marker-end="url(#arrow)" />
<text x="105" y="245" class="qVal">4.058593750000</text>
<line x1="184.99999999999997" y1="225.0" x2="179.99999999999997" y2="225.0" stroke="#000" stroke-width="4" marker-end="url(#arrow)" />
<text x="155" y="245" class="qVal">2.551269531250</text>
<line x1="234.99999999999997" y1="225.0" x2="229.99999999999997" y2="225.0" stroke="#000" stroke-width="4" marker-end="url(#arrow)" />
<text x="204" y="245" class="qVal">1.232360839844</text>

<!--Add the north and west maze border-->
<line x1="0" y1="0" x2="250" y2="0"/>
<line x1="0" y1="0" x2="0" y2="250"/>
</svg>
