<?xml version="1.0" encoding="utf-8"?>
<svg xmlns="http://www.w3.org/2000/svg"
    xmlns:xlink="http://www.w3.org/1999/xlink"
    width="520" height="520" viewBox="-10 -10 520 520">
<defs>
<style type="text/css"><![CDATA[
line {
    stroke: #000000;
    stroke-linecap: square;
    stroke-width: 4;
}
]]>
.small { font: bold 10.0px sans-serif;
         fill: lightgray; }}
</style>
<style type="text/css"><![CDATA[
line {
    stroke: #000000;
    stroke-linecap: square;
    stroke-width: 4;
}
]]>
.qVal { font: 5.0px monospace;
         fill: black; }}
</style>
<marker id="arrow" markerWidth="50.0" markerHeight="25.0" refX="0" refY="2.5" orient="auto">
	<polygon points="0 0, 5.0 2.5, 0 5.0" />
</marker>
</defs>
<!--Add Grid Layout-->
<rect x="0" y="0" width="50" height="50" fill="none" stroke="gray" stroke-width="1"/>
<rect x="0" y="50" width="50" height="50" fill="none" stroke="gray" stroke-width="1"/>
<rect x="0" y="100" width="50" height="50" fill="none" stroke="gray" stroke-width="1"/>
<rect x="0" y="150" width="50" height="50" fill="none" stroke="gray" stroke-width="1"/>
<rect x="0" y="200" width="50" height="50" fill="none" stroke="gray" stroke-width="1"/>
<rect x="0" y="250" width="50" height="50" fill="none" stroke="gray" stroke-width="1"/>
<rect x="0" y="300" width="50" height="50" fill="none" stroke="gray" stroke-width="1"/>
<rect x="0" y="350" width="50" height="50" fill="green" stroke="gray" stroke-width="1"/>
<rect x="0" y="400" width="50" height="50" fill="none" stroke="gray" stroke-width="1"/>
<rect x="0" y="450" width="50" height="50" fill="none" stroke="gray" stroke-width="1"/>
<rect x="50" y="0" width="50" height="50" fill="none" stroke="gray" stroke-width="1"/>
<rect x="50" y="50" width="50" height="50" fill="none" stroke="gray" stroke-width="1"/>
<rect x="50" y="100" width="50" height="50" fill="none" stroke="gray" stroke-width="1"/>
<rect x="50" y="150" width="50" height="50" fill="none" stroke="gray" stroke-width="1"/>
<rect x="50" y="200" width="50" height="50" fill="none" stroke="gray" stroke-width="1"/>
<rect x="50" y="250" width="50" height="50" fill="none" stroke="gray" stroke-width="1"/>
<rect x="50" y="300" width="50" height="50" fill="none" stroke="gray" stroke-width="1"/>
<rect x="50" y="350" width="50" height="50" fill="none" stroke="gray" stroke-width="1"/>
<rect x="50" y="400" width="50" height="50" fill="none" stroke="gray" stroke-width="1"/>
<rect x="50" y="450" width="50" height="50" fill="none" stroke="gray" stroke-width="1"/>
<rect x="100" y="0" width="50" height="50" fill="none" stroke="gray" stroke-width="1"/>
<rect x="100" y="50" width="50" height="50" fill="none" stroke="gray" stroke-width="1"/>
<rect x="100" y="100" width="50" height="50" fill="none" stroke="gray" stroke-width="1"/>
<rect x="100" y="150" width="50" height="50" fill="none" stroke="gray" stroke-width="1"/>
<rect x="100" y="200" width="50" height="50" fill="none" stroke="gray" stroke-width="1"/>
<rect x="100" y="250" width="50" height="50" fill="none" stroke="gray" stroke-width="1"/>
<rect x="100" y="300" width="50" height="50" fill="none" stroke="gray" stroke-width="1"/>
<rect x="100" y="350" width="50" height="50" fill="none" stroke="gray" stroke-width="1"/>
<rect x="100" y="400" width="50" height="50" fill="none" stroke="gray" stroke-width="1"/>
<rect x="100" y="450" width="50" height="50" fill="none" stroke="gray" stroke-width="1"/>
<rect x="150" y="0" width="50" height="50" fill="none" stroke="gray" stroke-width="1"/>
<rect x="150" y="50" width="50" height="50" fill="none" stroke="gray" stroke-width="1"/>
<rect x="150" y="100" width="50" height="50" fill="none" stroke="gray" stroke-width="1"/>
<rect x="150" y="150" width="50" height="50" fill="none" stroke="gray" stroke-width="1"/>
<rect x="150" y="200" width="50" height="50" fill="none" stroke="gray" stroke-width="1"/>
<rect x="150" y="250" width="50" height="50" fill="none" stroke="gray" stroke-width="1"/>
<rect x="150" y="300" width="50" height="50" fill="none" stroke="gray" stroke-width="1"/>
<rect x="150" y="350" width="50" height="50" fill="none" stroke="gray" stroke-width="1"/>
<rect x="150" y="400" width="50" height="50" fill="none" stroke="gray" stroke-width="1"/>
<rect x="150" y="450" width="50" height="50" fill="none" stroke="gray" stroke-width="1"/>
<rect x="200" y="0" width="50" height="50" fill="none" stroke="gray" stroke-width="1"/>
<rect x="200" y="50" width="50" height="50" fill="none" stroke="gray" stroke-width="1"/>
<rect x="200" y="100" width="50" height="50" fill="none" stroke="gray" stroke-width="1"/>
<rect x="200" y="150" width="50" height="50" fill="none" stroke="gray" stroke-width="1"/>
<rect x="200" y="200" width="50" height="50" fill="none" stroke="gray" stroke-width="1"/>
<rect x="200" y="250" width="50" height="50" fill="none" stroke="gray" stroke-width="1"/>
<rect x="200" y="300" width="50" height="50" fill="none" stroke="gray" stroke-width="1"/>
<rect x="200" y="350" width="50" height="50" fill="none" stroke="gray" stroke-width="1"/>
<rect x="200" y="400" width="50" height="50" fill="none" stroke="gray" stroke-width="1"/>
<rect x="200" y="450" width="50" height="50" fill="none" stroke="gray" stroke-width="1"/>
<rect x="250" y="0" width="50" height="50" fill="none" stroke="gray" stroke-width="1"/>
<rect x="250" y="50" width="50" height="50" fill="none" stroke="gray" stroke-width="1"/>
<rect x="250" y="100" width="50" height="50" fill="none" stroke="gray" stroke-width="1"/>
<rect x="250" y="150" width="50" height="50" fill="none" stroke="gray" stroke-width="1"/>
<rect x="250" y="200" width="50" height="50" fill="none" stroke="gray" stroke-width="1"/>
<rect x="250" y="250" width="50" height="50" fill="none" stroke="gray" stroke-width="1"/>
<rect x="250" y="300" width="50" height="50" fill="none" stroke="gray" stroke-width="1"/>
<rect x="250" y="350" width="50" height="50" fill="none" stroke="gray" stroke-width="1"/>
<rect x="250" y="400" width="50" height="50" fill="none" stroke="gray" stroke-width="1"/>
<rect x="250" y="450" width="50" height="50" fill="none" stroke="gray" stroke-width="1"/>
<rect x="300" y="0" width="50" height="50" fill="none" stroke="gray" stroke-width="1"/>
<rect x="300" y="50" width="50" height="50" fill="none" stroke="gray" stroke-width="1"/>
<rect x="300" y="100" width="50" height="50" fill="none" stroke="gray" stroke-width="1"/>
<rect x="300" y="150" width="50" height="50" fill="none" stroke="gray" stroke-width="1"/>
<rect x="300" y="200" width="50" height="50" fill="none" stroke="gray" stroke-width="1"/>
<rect x="300" y="250" width="50" height="50" fill="none" stroke="gray" stroke-width="1"/>
<rect x="300" y="300" width="50" height="50" fill="none" stroke="gray" stroke-width="1"/>
<rect x="300" y="350" width="50" height="50" fill="none" stroke="gray" stroke-width="1"/>
<rect x="300" y="400" width="50" height="50" fill="none" stroke="gray" stroke-width="1"/>
<rect x="300" y="450" width="50" height="50" fill="none" stroke="gray" stroke-width="1"/>
<rect x="350" y="0" width="50" height="50" fill="none" stroke="gray" stroke-width="1"/>
<rect x="350" y="50" width="50" height="50" fill="none" stroke="gray" stroke-width="1"/>
<rect x="350" y="100" width="50" height="50" fill="none" stroke="gray" stroke-width="1"/>
<rect x="350" y="150" width="50" height="50" fill="none" stroke="gray" stroke-width="1"/>
<rect x="350" y="200" width="50" height="50" fill="none" stroke="gray" stroke-width="1"/>
<rect x="350" y="250" width="50" height="50" fill="none" stroke="gray" stroke-width="1"/>
<rect x="350" y="300" width="50" height="50" fill="none" stroke="gray" stroke-width="1"/>
<rect x="350" y="350" width="50" height="50" fill="none" stroke="gray" stroke-width="1"/>
<rect x="350" y="400" width="50" height="50" fill="none" stroke="gray" stroke-width="1"/>
<rect x="350" y="450" width="50" height="50" fill="none" stroke="gray" stroke-width="1"/>
<rect x="400" y="0" width="50" height="50" fill="none" stroke="gray" stroke-width="1"/>
<rect x="400" y="50" width="50" height="50" fill="none" stroke="gray" stroke-width="1"/>
<rect x="400" y="100" width="50" height="50" fill="none" stroke="gray" stroke-width="1"/>
<rect x="400" y="150" width="50" height="50" fill="none" stroke="gray" stroke-width="1"/>
<rect x="400" y="200" width="50" height="50" fill="none" stroke="gray" stroke-width="1"/>
<rect x="400" y="250" width="50" height="50" fill="none" stroke="gray" stroke-width="1"/>
<rect x="400" y="300" width="50" height="50" fill="none" stroke="gray" stroke-width="1"/>
<rect x="400" y="350" width="50" height="50" fill="none" stroke="gray" stroke-width="1"/>
<rect x="400" y="400" width="50" height="50" fill="none" stroke="gray" stroke-width="1"/>
<rect x="400" y="450" width="50" height="50" fill="none" stroke="gray" stroke-width="1"/>
<rect x="450" y="0" width="50" height="50" fill="none" stroke="gray" stroke-width="1"/>
<rect x="450" y="50" width="50" height="50" fill="none" stroke="gray" stroke-width="1"/>
<rect x="450" y="100" width="50" height="50" fill="none" stroke="gray" stroke-width="1"/>
<rect x="450" y="150" width="50" height="50" fill="none" stroke="gray" stroke-width="1"/>
<rect x="450" y="200" width="50" height="50" fill="none" stroke="gray" stroke-width="1"/>
<rect x="450" y="250" width="50" height="50" fill="none" stroke="gray" stroke-width="1"/>
<rect x="450" y="300" width="50" height="50" fill="none" stroke="gray" stroke-width="1"/>
<rect x="450" y="350" width="50" height="50" fill="none" stroke="gray" stroke-width="1"/>
<rect x="450" y="400" width="50" height="50" fill="none" stroke="gray" stroke-width="1"/>
<rect x="450" y="450" width="50" height="50" fill="none" stroke="gray" stroke-width="1"/>

<!--Add Coordinates-->
<text x="5" y="15" class="small">S0</text>
<text x="5" y="65" class="small">S10</text>
<text x="5" y="114" class="small">S20</text>
<text x="5" y="165" class="small">S30</text>
<text x="5" y="215" class="small">S40</text>
<text x="5" y="265" class="small">S50</text>
<text x="5" y="315" class="small">S60</text>
<text x="5" y="365" class="small">S70</text>
<text x="5" y="415" class="small">S80</text>
<text x="5" y="465" class="small">S90</text>
<text x="55" y="15" class="small">S1</text>
<text x="55" y="65" class="small">S11</text>
<text x="55" y="114" class="small">S21</text>
<text x="55" y="165" class="small">S31</text>
<text x="55" y="215" class="small">S41</text>
<text x="55" y="265" class="small">S51</text>
<text x="55" y="315" class="small">S61</text>
<text x="55" y="365" class="small">S71</text>
<text x="55" y="415" class="small">S81</text>
<text x="55" y="465" class="small">S91</text>
<text x="105" y="15" class="small">S2</text>
<text x="105" y="65" class="small">S12</text>
<text x="105" y="114" class="small">S22</text>
<text x="105" y="165" class="small">S32</text>
<text x="105" y="215" class="small">S42</text>
<text x="105" y="265" class="small">S52</text>
<text x="105" y="315" class="small">S62</text>
<text x="105" y="365" class="small">S72</text>
<text x="105" y="415" class="small">S82</text>
<text x="105" y="465" class="small">S92</text>
<text x="155" y="15" class="small">S3</text>
<text x="155" y="65" class="small">S13</text>
<text x="155" y="114" class="small">S23</text>
<text x="155" y="165" class="small">S33</text>
<text x="155" y="215" class="small">S43</text>
<text x="155" y="265" class="small">S53</text>
<text x="155" y="315" class="small">S63</text>
<text x="155" y="365" class="small">S73</text>
<text x="155" y="415" class="small">S83</text>
<text x="155" y="465" class="small">S93</text>
<text x="204" y="15" class="small">S4</text>
<text x="204" y="65" class="small">S14</text>
<text x="204" y="114" class="small">S24</text>
<text x="204" y="165" class="small">S34</text>
<text x="204" y="215" class="small">S44</text>
<text x="204" y="265" class="small">S54</text>
<text x="204" y="315" class="small">S64</text>
<text x="204" y="365" class="small">S74</text>
<text x="204" y="415" class="small">S84</text>
<text x="204" y="465" class="small">S94</text>
<text x="254" y="15" class="small">S5</text>
<text x="254" y="65" class="small">S15</text>
<text x="254" y="114" class="small">S25</text>
<text x="254" y="165" class="small">S35</text>
<text x="254" y="215" class="small">S45</text>
<text x="254" y="265" class="small">S55</text>
<text x="254" y="315" class="small">S65</text>
<text x="254" y="365" class="small">S75</text>
<text x="254" y="415" class="small">S85</text>
<text x="254" y="465" class="small">S95</text>
<text x="305" y="15" class="small">S6</text>
<text x="305" y="65" class="small">S16</text>
<text x="305" y="114" class="small">S26</text>
<text x="305" y="165" class="small">S36</text>
<text x="305" y="215" class="small">S46</text>
<text x="305" y="265" class="small">S56</text>
<text x="305" y="315" class="small">S66</text>
<text x="305" y="365" class="small">S76</text>
<text x="305" y="415" class="small">S86</text>
<text x="305" y="465" class="small">S96</text>
<text x="355" y="15" class="small">S7</text>
<text x="355" y="65" class="small">S17</text>
<text x="355" y="114" class="small">S27</text>
<text x="355" y="165" class="small">S37</text>
<text x="355" y="215" class="small">S47</text>
<text x="355" y="265" class="small">S57</text>
<text x="355" y="315" class="small">S67</text>
<text x="355" y="365" class="small">S77</text>
<text x="355" y="415" class="small">S87</text>
<text x="355" y="465" class="small">S97</text>
<text x="405" y="15" class="small">S8</text>
<text x="405" y="65" class="small">S18</text>
<text x="405" y="114" class="small">S28</text>
<text x="405" y="165" class="small">S38</text>
<text x="405" y="215" class="small">S48</text>
<text x="405" y="265" class="small">S58</text>
<text x="405" y="315" class="small">S68</text>
<text x="405" y="365" class="small">S78</text>
<text x="405" y="415" class="small">S88</text>
<text x="405" y="465" class="small">S98</text>
<text x="455" y="15" class="small">S9</text>
<text x="455" y="65" class="small">S19</text>
<text x="455" y="114" class="small">S29</text>
<text x="455" y="165" class="small">S39</text>
<text x="455" y="215" class="small">S49</text>
<text x="455" y="265" class="small">S59</text>
<text x="455" y="315" class="small">S69</text>
<text x="455" y="365" class="small">S79</text>
<text x="455" y="415" class="small">S89</text>
<text x="455" y="465" class="small">S99</text>

<!--Add Walls-->
<line x1="50" y1="0" x2="50" y2="50"/>
<line x1="0" y1="100" x2="50" y2="100"/>
<line x1="50" y1="200" x2="50" y2="250"/>
<line x1="50" y1="250" x2="50" y2="300"/>
<line x1="0" y1="400" x2="50" y2="400"/>
<line x1="50" y1="350" x2="50" y2="400"/>
<line x1="0" y1="500" x2="50" y2="500"/>
<line x1="50" y1="100" x2="100" y2="100"/>
<line x1="100" y1="50" x2="100" y2="100"/>
<line x1="50" y1="150" x2="100" y2="150"/>
<line x1="100" y1="150" x2="100" y2="200"/>
<line x1="50" y1="250" x2="100" y2="250"/>
<line x1="100" y1="250" x2="100" y2="300"/>
<line x1="50" y1="350" x2="100" y2="350"/>
<line x1="100" y1="300" x2="100" y2="350"/>
<line x1="50" y1="450" x2="100" y2="450"/>
<line x1="100" y1="400" x2="100" y2="450"/>
<line x1="50" y1="500" x2="100" y2="500"/>
<line x1="150" y1="50" x2="150" y2="100"/>
<line x1="100" y1="150" x2="150" y2="150"/>
<line x1="100" y1="200" x2="150" y2="200"/>
<line x1="150" y1="200" x2="150" y2="250"/>
<line x1="150" y1="250" x2="150" y2="300"/>
<line x1="150" y1="300" x2="150" y2="350"/>
<line x1="100" y1="400" x2="150" y2="400"/>
<line x1="150" y1="350" x2="150" y2="400"/>
<line x1="100" y1="500" x2="150" y2="500"/>
<line x1="150" y1="450" x2="150" y2="500"/>
<line x1="150" y1="50" x2="200" y2="50"/>
<line x1="200" y1="0" x2="200" y2="50"/>
<line x1="150" y1="100" x2="200" y2="100"/>
<line x1="200" y1="100" x2="200" y2="150"/>
<line x1="200" y1="150" x2="200" y2="200"/>
<line x1="200" y1="200" x2="200" y2="250"/>
<line x1="150" y1="300" x2="200" y2="300"/>
<line x1="150" y1="400" x2="200" y2="400"/>
<line x1="200" y1="350" x2="200" y2="400"/>
<line x1="200" y1="400" x2="200" y2="450"/>
<line x1="150" y1="500" x2="200" y2="500"/>
<line x1="200" y1="100" x2="250" y2="100"/>
<line x1="250" y1="50" x2="250" y2="100"/>
<line x1="200" y1="200" x2="250" y2="200"/>
<line x1="200" y1="300" x2="250" y2="300"/>
<line x1="250" y1="250" x2="250" y2="300"/>
<line x1="200" y1="350" x2="250" y2="350"/>
<line x1="200" y1="450" x2="250" y2="450"/>
<line x1="200" y1="500" x2="250" y2="500"/>
<line x1="300" y1="0" x2="300" y2="50"/>
<line x1="250" y1="100" x2="300" y2="100"/>
<line x1="250" y1="150" x2="300" y2="150"/>
<line x1="250" y1="200" x2="300" y2="200"/>
<line x1="300" y1="200" x2="300" y2="250"/>
<line x1="300" y1="250" x2="300" y2="300"/>
<line x1="250" y1="350" x2="300" y2="350"/>
<line x1="250" y1="400" x2="300" y2="400"/>
<line x1="250" y1="450" x2="300" y2="450"/>
<line x1="250" y1="500" x2="300" y2="500"/>
<line x1="300" y1="50" x2="350" y2="50"/>
<line x1="350" y1="50" x2="350" y2="100"/>
<line x1="300" y1="150" x2="350" y2="150"/>
<line x1="350" y1="100" x2="350" y2="150"/>
<line x1="350" y1="150" x2="350" y2="200"/>
<line x1="350" y1="200" x2="350" y2="250"/>
<line x1="300" y1="300" x2="350" y2="300"/>
<line x1="300" y1="350" x2="350" y2="350"/>
<line x1="300" y1="400" x2="350" y2="400"/>
<line x1="350" y1="400" x2="350" y2="450"/>
<line x1="300" y1="500" x2="350" y2="500"/>
<line x1="400" y1="50" x2="400" y2="100"/>
<line x1="400" y1="100" x2="400" y2="150"/>
<line x1="350" y1="200" x2="400" y2="200"/>
<line x1="350" y1="300" x2="400" y2="300"/>
<line x1="400" y1="250" x2="400" y2="300"/>
<line x1="350" y1="350" x2="400" y2="350"/>
<line x1="400" y1="300" x2="400" y2="350"/>
<line x1="350" y1="400" x2="400" y2="400"/>
<line x1="400" y1="400" x2="400" y2="450"/>
<line x1="350" y1="500" x2="400" y2="500"/>
<line x1="450" y1="0" x2="450" y2="50"/>
<line x1="400" y1="100" x2="450" y2="100"/>
<line x1="400" y1="200" x2="450" y2="200"/>
<line x1="450" y1="150" x2="450" y2="200"/>
<line x1="450" y1="200" x2="450" y2="250"/>
<line x1="450" y1="250" x2="450" y2="300"/>
<line x1="400" y1="350" x2="450" y2="350"/>
<line x1="450" y1="350" x2="450" y2="400"/>
<line x1="400" y1="450" x2="450" y2="450"/>
<line x1="400" y1="500" x2="450" y2="500"/>
<line x1="500" y1="0" x2="500" y2="50"/>
<line x1="450" y1="100" x2="500" y2="100"/>
<line x1="500" y1="50" x2="500" y2="100"/>
<line x1="500" y1="100" x2="500" y2="150"/>
<line x1="500" y1="150" x2="500" y2="200"/>
<line x1="500" y1="200" x2="500" y2="250"/>
<line x1="500" y1="250" x2="500" y2="300"/>
<line x1="500" y1="300" x2="500" y2="350"/>
<line x1="500" y1="350" x2="500" y2="400"/>
<line x1="450" y1="450" x2="500" y2="450"/>
<line x1="500" y1="400" x2="500" y2="450"/>
<line x1="450" y1="500" x2="500" y2="500"/>
<line x1="500" y1="450" x2="500" y2="500"/>

<!--Add action arrows and Q-Values-->
<line x1="25.0" y1="15.000000000000002" x2="25.0" y2="20.0" stroke="#000" stroke-width="4" marker-end="url(#arrow)" />
<text x="5" y="45" class="qVal">-4.374489715992</text>
<line x1="65.0" y1="25.0" x2="70.0" y2="25.0" stroke="#000" stroke-width="4" marker-end="url(#arrow)" />
<text x="55" y="45" class="qVal">-2.588159576058</text>
<line x1="125.0" y1="15.000000000000002" x2="125.0" y2="20.0" stroke="#000" stroke-width="4" marker-end="url(#arrow)" />
<text x="105" y="45" class="qVal">-1.815039515495</text>
<line x1="184.99999999999997" y1="25.0" x2="179.99999999999997" y2="25.0" stroke="#000" stroke-width="4" marker-end="url(#arrow)" />
<text x="155" y="45" class="qVal">-2.588159576058</text>
<line x1="215.0" y1="25.0" x2="220.0" y2="25.0" stroke="#000" stroke-width="4" marker-end="url(#arrow)" />
<text x="204" y="45" class="qVal">-7.977318323278</text>
<line x1="275.0" y1="15.000000000000002" x2="275.0" y2="20.0" stroke="#000" stroke-width="4" marker-end="url(#arrow)" />
<text x="254" y="45" class="qVal">-7.974078083747</text>
<line x1="315.0" y1="25.0" x2="320.0" y2="25.0" stroke="#000" stroke-width="4" marker-end="url(#arrow)" />
<text x="305" y="45" class="qVal">-7.949460977463</text>
<line x1="375.0" y1="15.000000000000002" x2="375.0" y2="20.0" stroke="#000" stroke-width="4" marker-end="url(#arrow)" />
<text x="355" y="45" class="qVal">-7.942241117100</text>
<line x1="435.00000000000006" y1="25.0" x2="430.00000000000006" y2="25.0" stroke="#000" stroke-width="4" marker-end="url(#arrow)" />
<text x="405" y="45" class="qVal">-7.949460977463</text>
<line x1="475.0" y1="15.000000000000002" x2="475.0" y2="20.0" stroke="#000" stroke-width="4" marker-end="url(#arrow)" />
<text x="455" y="45" class="qVal">-7.966142803261</text>
<line x1="15.000000000000002" y1="75.0" x2="20.0" y2="75.0" stroke="#000" stroke-width="4" marker-end="url(#arrow)" />
<text x="5" y="95" class="qVal">-3.856559675420</text>
<line x1="75.0" y1="90.0" x2="75.0" y2="85.0" stroke="#000" stroke-width="4" marker-end="url(#arrow)" />
<text x="55" y="95" class="qVal">-3.264639629051</text>
<line x1="125.0" y1="65.0" x2="125.0" y2="70.0" stroke="#000" stroke-width="4" marker-end="url(#arrow)" />
<text x="105" y="95" class="qVal">-0.931473731995</text>
<line x1="165.0" y1="75.0" x2="170.0" y2="75.0" stroke="#000" stroke-width="4" marker-end="url(#arrow)" />
<text x="155" y="95" class="qVal">-7.982634341260</text>
<line x1="225.0" y1="90.0" x2="225.0" y2="85.0" stroke="#000" stroke-width="4" marker-end="url(#arrow)" />
<text x="204" y="95" class="qVal">-7.980153532869</text>
<line x1="265.0" y1="75.0" x2="270.0" y2="75.0" stroke="#000" stroke-width="4" marker-end="url(#arrow)" />
<text x="254" y="95" class="qVal">-7.970374952853</text>
<line x1="325.0" y1="65.0" x2="325.0" y2="70.0" stroke="#000" stroke-width="4" marker-end="url(#arrow)" />
<text x="305" y="95" class="qVal">-7.966142803261</text>
<line x1="375.0" y1="65.0" x2="375.0" y2="70.0" stroke="#000" stroke-width="4" marker-end="url(#arrow)" />
<text x="355" y="95" class="qVal">-7.933989848114</text>
<line x1="425.0" y1="90.0" x2="425.0" y2="85.0" stroke="#000" stroke-width="4" marker-end="url(#arrow)" />
<text x="405" y="95" class="qVal">-7.955778355280</text>
<line x1="485.00000000000006" y1="75.0" x2="480.00000000000006" y2="75.0" stroke="#000" stroke-width="4" marker-end="url(#arrow)" />
<text x="455" y="95" class="qVal">-7.961306060870</text>
<line x1="25.0" y1="115.00000000000001" x2="25.0" y2="120.00000000000001" stroke="#000" stroke-width="4" marker-end="url(#arrow)" />
<text x="5" y="145" class="qVal">2.551269531250</text>
<line x1="85.0" y1="125.0" x2="80.0" y2="125.0" stroke="#000" stroke-width="4" marker-end="url(#arrow)" />
<text x="55" y="145" class="qVal">1.232360839844</text>
<line x1="134.99999999999997" y1="125.0" x2="129.99999999999997" y2="125.0" stroke="#000" stroke-width="4" marker-end="url(#arrow)" />
<text x="105" y="145" class="qVal">0.078315734863</text>
<line x1="184.99999999999997" y1="125.0" x2="179.99999999999997" y2="125.0" stroke="#000" stroke-width="4" marker-end="url(#arrow)" />
<text x="155" y="145" class="qVal">-0.931473731995</text>
<line x1="225.0" y1="115.00000000000001" x2="225.0" y2="120.00000000000001" stroke="#000" stroke-width="4" marker-end="url(#arrow)" />
<text x="204" y="145" class="qVal">-7.949460977463</text>
<line x1="285.0" y1="125.0" x2="280.0" y2="125.0" stroke="#000" stroke-width="4" marker-end="url(#arrow)" />
<text x="254" y="145" class="qVal">-7.955778355280</text>
<line x1="335.0" y1="125.0" x2="330.0" y2="125.0" stroke="#000" stroke-width="4" marker-end="url(#arrow)" />
<text x="305" y="145" class="qVal">-7.961306060870</text>
<line x1="375.0" y1="115.00000000000001" x2="375.0" y2="120.00000000000001" stroke="#000" stroke-width="4" marker-end="url(#arrow)" />
<text x="355" y="145" class="qVal">-7.924559826416</text>
<line x1="414.99999999999994" y1="125.0" x2="419.99999999999994" y2="125.0" stroke="#000" stroke-width="4" marker-end="url(#arrow)" />
<text x="405" y="145" class="qVal">-7.887389595117</text>
<line x1="475.0" y1="115.00000000000001" x2="475.0" y2="120.00000000000001" stroke="#000" stroke-width="4" marker-end="url(#arrow)" />
<text x="455" y="145" class="qVal">-7.871302394420</text>
<line x1="25.0" y1="165.0" x2="25.0" y2="170.0" stroke="#000" stroke-width="4" marker-end="url(#arrow)" />
<text x="5" y="195" class="qVal">4.058593750000</text>
<line x1="85.0" y1="175.0" x2="80.0" y2="175.0" stroke="#000" stroke-width="4" marker-end="url(#arrow)" />
<text x="55" y="195" class="qVal">2.551269531250</text>
<line x1="115.00000000000001" y1="175.0" x2="120.00000000000001" y2="175.0" stroke="#000" stroke-width="4" marker-end="url(#arrow)" />
<text x="105" y="195" class="qVal">-2.588159576058</text>
<line x1="175.0" y1="190.0" x2="175.0" y2="185.0" stroke="#000" stroke-width="4" marker-end="url(#arrow)" />
<text x="155" y="195" class="qVal">-1.815039515495</text>
<line x1="215.0" y1="175.0" x2="220.0" y2="175.0" stroke="#000" stroke-width="4" marker-end="url(#arrow)" />
<text x="204" y="195" class="qVal">-7.942241117100</text>
<line x1="265.0" y1="175.0" x2="270.0" y2="175.0" stroke="#000" stroke-width="4" marker-end="url(#arrow)" />
<text x="254" y="195" class="qVal">-7.933989848114</text>
<line x1="325.0" y1="165.0" x2="325.0" y2="170.0" stroke="#000" stroke-width="4" marker-end="url(#arrow)" />
<text x="305" y="195" class="qVal">-7.924559826416</text>
<line x1="365.0" y1="175.0" x2="370.0" y2="175.0" stroke="#000" stroke-width="4" marker-end="url(#arrow)" />
<text x="355" y="195" class="qVal">-7.913782658762</text>
<line x1="425.0" y1="190.0" x2="425.0" y2="185.0" stroke="#000" stroke-width="4" marker-end="url(#arrow)" />
<text x="405" y="195" class="qVal">-7.901465895727</text>
<line x1="475.0" y1="165.0" x2="475.0" y2="170.0" stroke="#000" stroke-width="4" marker-end="url(#arrow)" />
<text x="455" y="195" class="qVal">-7.852917022194</text>
<line x1="25.0" y1="215.0" x2="25.0" y2="220.0" stroke="#000" stroke-width="4" marker-end="url(#arrow)" />
<text x="5" y="245" class="qVal">5.781250000000</text>
<line x1="75.0" y1="240.0" x2="75.0" y2="235.0" stroke="#000" stroke-width="4" marker-end="url(#arrow)" />
<text x="55" y="245" class="qVal">1.232360839844</text>
<line x1="134.99999999999997" y1="225.0" x2="129.99999999999997" y2="225.0" stroke="#000" stroke-width="4" marker-end="url(#arrow)" />
<text x="105" y="245" class="qVal">0.078315734863</text>
<line x1="175.0" y1="240.0" x2="175.0" y2="235.0" stroke="#000" stroke-width="4" marker-end="url(#arrow)" />
<text x="155" y="245" class="qVal">-2.588159576058</text>
<line x1="225.0" y1="215.0" x2="225.0" y2="220.0" stroke="#000" stroke-width="4" marker-end="url(#arrow)" />
<text x="204" y="245" class="qVal">-4.374489715992</text>
<line x1="285.0" y1="225.0" x2="280.0" y2="225.0" stroke="#000" stroke-width="4" marker-end="url(#arrow)" />
<text x="254" y="245" class="qVal">-4.827678501493</text>
<line x1="325.0" y1="215.0" x2="325.0" y2="220.0" stroke="#000" stroke-width="4" marker-end="url(#arrow)" />
<text x="305" y="245" class="qVal">-7.913782658762</text>
<line x1="365.0" y1="225.0" x2="370.0" y2="225.0" stroke="#000" stroke-width="4" marker-end="url(#arrow)" />
<text x="355" y="245" class="qVal">-7.871302394420</text>
<line x1="425.0" y1="215.0" x2="425.0" y2="220.0" stroke="#000" stroke-width="4" marker-end="url(#arrow)" />
<text x="405" y="245" class="qVal">-7.852917022194</text>
<line x1="475.0" y1="215.0" x2="475.0" y2="220.0" stroke="#000" stroke-width="4" marker-end="url(#arrow)" />
<text x="455" y="245" class="qVal">-7.831905168221</text>
<line x1="25.0" y1="265.0" x2="25.0" y2="270.0" stroke="#000" stroke-width="4" marker-end="url(#arrow)" />
<text x="5" y="295" class="qVal">7.750000000000</text>
<line x1="75.0" y1="265.0" x2="75.0" y2="270.0" stroke="#000" stroke-width="4" marker-end="url(#arrow)" />
<text x="55" y="295" class="qVal">5.781250000000</text>
<line x1="125.0" y1="290.0" x2="125.0" y2="285.0" stroke="#000" stroke-width="4" marker-end="url(#arrow)" />
<text x="105" y="295" class="qVal">-0.931473731995</text>
<line x1="175.0" y1="290.0" x2="175.0" y2="285.0" stroke="#000" stroke-width="4" marker-end="url(#arrow)" />
<text x="155" y="295" class="qVal">-3.264639629051</text>
<line x1="234.99999999999997" y1="275.0" x2="229.99999999999997" y2="275.0" stroke="#000" stroke-width="4" marker-end="url(#arrow)" />
<text x="204" y="295" class="qVal">-3.856559675420</text>
<line x1="275.0" y1="290.0" x2="275.0" y2="285.0" stroke="#000" stroke-width="4" marker-end="url(#arrow)" />
<text x="254" y="295" class="qVal">-5.224218688807</text>
<line x1="315.0" y1="275.0" x2="320.0" y2="275.0" stroke="#000" stroke-width="4" marker-end="url(#arrow)" />
<text x="305" y="295" class="qVal">-7.901465895727</text>
<line x1="375.0" y1="290.0" x2="375.0" y2="285.0" stroke="#000" stroke-width="4" marker-end="url(#arrow)" />
<text x="355" y="295" class="qVal">-7.887389595117</text>
<line x1="425.0" y1="265.0" x2="425.0" y2="270.0" stroke="#000" stroke-width="4" marker-end="url(#arrow)" />
<text x="405" y="295" class="qVal">-7.831905168221</text>
<line x1="475.0" y1="265.0" x2="475.0" y2="270.0" stroke="#000" stroke-width="4" marker-end="url(#arrow)" />
<text x="455" y="295" class="qVal">-7.807891620824</text>
<line x1="25.0" y1="315.0" x2="25.0" y2="320.0" stroke="#000" stroke-width="4" marker-end="url(#arrow)" />
<text x="5" y="345" class="qVal">10.000000000000</text>
<line x1="85.0" y1="325.0" x2="80.0" y2="325.0" stroke="#000" stroke-width="4" marker-end="url(#arrow)" />
<text x="55" y="345" class="qVal">7.750000000000</text>
<line x1="125.0" y1="340.0" x2="125.0" y2="335.0" stroke="#000" stroke-width="4" marker-end="url(#arrow)" />
<text x="105" y="345" class="qVal">-1.815039515495</text>
<line x1="165.0" y1="325.0" x2="170.0" y2="325.0" stroke="#000" stroke-width="4" marker-end="url(#arrow)" />
<text x="155" y="345" class="qVal">-6.140443379415</text>
<line x1="215.0" y1="325.0" x2="220.0" y2="325.0" stroke="#000" stroke-width="4" marker-end="url(#arrow)" />
<text x="204" y="345" class="qVal">-5.874792433618</text>
<line x1="275.0" y1="340.0" x2="275.0" y2="335.0" stroke="#000" stroke-width="4" marker-end="url(#arrow)" />
<text x="254" y="345" class="qVal">-5.571191352706</text>
<line x1="335.0" y1="325.0" x2="330.0" y2="325.0" stroke="#000" stroke-width="4" marker-end="url(#arrow)" />
<text x="305" y="345" class="qVal">-5.874792433618</text>
<line x1="385.0" y1="325.0" x2="380.0" y2="325.0" stroke="#000" stroke-width="4" marker-end="url(#arrow)" />
<text x="355" y="345" class="qVal">-6.140443379415</text>
<line x1="414.99999999999994" y1="325.0" x2="419.99999999999994" y2="325.0" stroke="#000" stroke-width="4" marker-end="url(#arrow)" />
<text x="405" y="345" class="qVal">-7.807891620824</text>
<line x1="475.0" y1="315.0" x2="475.0" y2="320.0" stroke="#000" stroke-width="4" marker-end="url(#arrow)" />
<text x="455" y="345" class="qVal">-7.780447566657</text>
<line x1="65.0" y1="375.0" x2="70.0" y2="375.0" stroke="#000" stroke-width="4" marker-end="url(#arrow)" />
<text x="55" y="395" class="qVal">-3.264639629051</text>
<line x1="125.0" y1="390.0" x2="125.0" y2="385.0" stroke="#000" stroke-width="4" marker-end="url(#arrow)" />
<text x="105" y="395" class="qVal">-2.588159576058</text>
<line x1="175.0" y1="390.0" x2="175.0" y2="385.0" stroke="#000" stroke-width="4" marker-end="url(#arrow)" />
<text x="155" y="395" class="qVal">-6.372887956988</text>
<line x1="225.0" y1="365.0" x2="225.0" y2="370.0" stroke="#000" stroke-width="4" marker-end="url(#arrow)" />
<text x="204" y="395" class="qVal">-7.361039765721</text>
<line x1="285.0" y1="375.0" x2="280.0" y2="375.0" stroke="#000" stroke-width="4" marker-end="url(#arrow)" />
<text x="254" y="395" class="qVal">-7.440909795006</text>
<line x1="335.0" y1="375.0" x2="330.0" y2="375.0" stroke="#000" stroke-width="4" marker-end="url(#arrow)" />
<text x="305" y="395" class="qVal">-7.510796070630</text>
<line x1="385.0" y1="375.0" x2="380.0" y2="375.0" stroke="#000" stroke-width="4" marker-end="url(#arrow)" />
<text x="355" y="395" class="qVal">-7.571946561802</text>
<line x1="435.00000000000006" y1="375.0" x2="430.00000000000006" y2="375.0" stroke="#000" stroke-width="4" marker-end="url(#arrow)" />
<text x="405" y="395" class="qVal">-7.625453241576</text>
<line x1="475.0" y1="365.0" x2="475.0" y2="370.0" stroke="#000" stroke-width="4" marker-end="url(#arrow)" />
<text x="455" y="395" class="qVal">-7.749082933322</text>
<line x1="15.000000000000002" y1="425.0" x2="20.0" y2="425.0" stroke="#000" stroke-width="4" marker-end="url(#arrow)" />
<text x="5" y="445" class="qVal">-4.374489715992</text>
<line x1="75.0" y1="440.00000000000006" x2="75.0" y2="435.00000000000006" stroke="#000" stroke-width="4" marker-end="url(#arrow)" />
<text x="55" y="445" class="qVal">-3.856559675420</text>
<line x1="125.0" y1="414.99999999999994" x2="125.0" y2="419.99999999999994" stroke="#000" stroke-width="4" marker-end="url(#arrow)" />
<text x="105" y="445" class="qVal">-5.874792433618</text>
<line x1="184.99999999999997" y1="425.0" x2="179.99999999999997" y2="425.0" stroke="#000" stroke-width="4" marker-end="url(#arrow)" />
<text x="155" y="445" class="qVal">-6.140443379415</text>
<line x1="215.0" y1="425.0" x2="220.0" y2="425.0" stroke="#000" stroke-width="4" marker-end="url(#arrow)" />
<text x="204" y="445" class="qVal">-7.269759732253</text>
<line x1="265.0" y1="425.0" x2="270.0" y2="425.0" stroke="#000" stroke-width="4" marker-end="url(#arrow)" />
<text x="254" y="445" class="qVal">-7.165439694003</text>
<line x1="325.0" y1="414.99999999999994" x2="325.0" y2="419.99999999999994" stroke="#000" stroke-width="4" marker-end="url(#arrow)" />
<text x="305" y="445" class="qVal">-7.046216793147</text>
<line x1="375.0" y1="414.99999999999994" x2="375.0" y2="419.99999999999994" stroke="#000" stroke-width="4" marker-end="url(#arrow)" />
<text x="355" y="445" class="qVal">-7.165439694003</text>
<line x1="425.0" y1="440.00000000000006" x2="425.0" y2="435.00000000000006" stroke="#000" stroke-width="4" marker-end="url(#arrow)" />
<text x="405" y="445" class="qVal">-7.672271586379</text>
<line x1="485.00000000000006" y1="425.0" x2="480.00000000000006" y2="425.0" stroke="#000" stroke-width="4" marker-end="url(#arrow)" />
<text x="455" y="445" class="qVal">-7.713237638082</text>
<line x1="25.0" y1="490.00000000000006" x2="25.0" y2="485.00000000000006" stroke="#000" stroke-width="4" marker-end="url(#arrow)" />
<text x="5" y="495" class="qVal">-4.827678501493</text>
<line x1="85.0" y1="475.0" x2="80.0" y2="475.0" stroke="#000" stroke-width="4" marker-end="url(#arrow)" />
<text x="55" y="495" class="qVal">-5.224218688807</text>
<line x1="134.99999999999997" y1="475.0" x2="129.99999999999997" y2="475.0" stroke="#000" stroke-width="4" marker-end="url(#arrow)" />
<text x="105" y="495" class="qVal">-5.571191352706</text>
<line x1="175.0" y1="490.00000000000006" x2="175.0" y2="485.00000000000006" stroke="#000" stroke-width="4" marker-end="url(#arrow)" />
<text x="155" y="495" class="qVal">-6.372887956988</text>
<line x1="234.99999999999997" y1="475.0" x2="229.99999999999997" y2="475.0" stroke="#000" stroke-width="4" marker-end="url(#arrow)" />
<text x="204" y="495" class="qVal">-6.576276962365</text>
<line x1="285.0" y1="475.0" x2="280.0" y2="475.0" stroke="#000" stroke-width="4" marker-end="url(#arrow)" />
<text x="254" y="495" class="qVal">-6.754242342069</text>
<line x1="335.0" y1="475.0" x2="330.0" y2="475.0" stroke="#000" stroke-width="4" marker-end="url(#arrow)" />
<text x="305" y="495" class="qVal">-6.909962049311</text>
<line x1="385.0" y1="475.0" x2="380.0" y2="475.0" stroke="#000" stroke-width="4" marker-end="url(#arrow)" />
<text x="355" y="495" class="qVal">-7.046216793147</text>
<line x1="435.00000000000006" y1="475.0" x2="430.00000000000006" y2="475.0" stroke="#000" stroke-width="4" marker-end="url(#arrow)" />
<text x="405" y="495" class="qVal">-7.165439694003</text>
<line x1="485.00000000000006" y1="475.0" x2="480.00000000000006" y2="475.0" stroke="#000" stroke-width="4" marker-end="url(#arrow)" />
<text x="455" y="495" class="qVal">-7.269759732253</text>

<!--Add the north and west maze border-->
<line x1="0" y1="0" x2="500" y2="0"/>
<line x1="0" y1="0" x2="0" y2="500"/>
</svg>
